#!OML:ASF E:\id_vita\Project 1\Capture day 1\Session 1\Male1.ASF
:FULLY-SPECIFIED
:DEGREES
398
root 46.504 16.158 -1.72064 1150.7 83.774 1151.51
lowerback -3.07163 -1.11988 -7.01816
upperback 0.331519 -1.16254 -1.53563
thorax 2.17877 -0.639272 2.28868
lowerneck -10.4236 1.58955 3.64008
upperneck 8.58205 1.72039 -1.13612
head 4.31205 0.903601 -0.822875
rclavicle 8.48562e-015 3.47873e-015
rhumerus -35.6478 -40.0808 -66.9678
rradius 1.80923
rwrist 34.4198
rhand -24.6487 28.956
rfingers 7.12502
rthumb 1.85082 -1.01573
lclavicle 8.48562e-015 3.47873e-015
lhumerus -18.2493 22.1557 79.0575
lradius 27.7786
lwrist 1.57502
lhand -11.6907 39.9037
lfingers 7.12502
lthumb 14.355 69.3873
rfemur -23.3803 -1.67105 13.4191
rtibia 51.51
rfoot -18.8043 -8.89216
rtoes 1.81541
lfemur -10.425 3.61723 -29.786
ltibia 34.3938
lfoot -18.6019 -3.70273
ltoes 39.4827
399
root 46.6342 16.1418 -1.73539 1155.36 83.4752 1156.08
lowerback -2.60782 -1.14372 -7.30169
upperback -0.0865093 -1.24315 -1.64893
thorax 1.49642 -0.649043 2.33946
lowerneck -10.1212 1.4648 3.7232
upperneck 8.99139 1.60705 -1.59776
head 4.3894 0.828646 -0.987446
rclavicle 6.54592e-016 -6.63444e-015
rhumerus -38.0423 -39.5333 -65.3558
rradius 2.28148
rwrist 34.2938
rhand -24.2654 28.9041
rfingers 7.12502
rthumb 2.22108 -1.06405
lclavicle 6.54592e-016 -6.63444e-015
lhumerus -17.6934 20.627 79.6358
lradius 29.2004
lwrist 3.02001
lhand -11.6719 39.2936
lfingers 7.12502
lthumb 14.3732 68.776
rfemur -23.9604 -1.97261 12.8741
rtibia 49.399
rfoot -18.7342 -10.003
rtoes -0.116047
lfemur -9.66656 3.67069 -30.3532
ltibia 33.823
lfoot -18.6799 -3.91179
ltoes 39.4054
400
root 46.7594 16.1522 -1.73761 1159.72 83.2677 1160.44
lowerback -2.79529 -1.16992 -7.5441
upperback 0.22419 -1.22781 -1.80219
thorax 1.92483 -0.661708 2.30896
lowerneck -10.5291 1.28324 3.47428
upperneck 8.70754 1.34541 -1.27993
head 4.35857 0.705603 -0.86531
rclavicle -2.22522e-014 -3.12589e-014
rhumerus -39.1247 -39.6383 -64.7301
rradius 2.82095
rwrist 34.1116
rhand -23.8734 28.8516
rfingers 7.12502
rthumb 2.59965 -1.11231
lclavicle -2.22522e-014 -3.12589e-014
lhumerus -15.8332 19.4772 80.4522
lradius 30.5836
lwrist 3.98805
lhand -11.2568 40.0495
lfingers 7.12502
lthumb 14.7731 69.503
rfemur -24.6812 -2.15146 12.5755
rtibia 47.2671
rfoot -18.9269 -10.9781
rtoes -0.479027
lfemur -8.74848 3.73967 -30.707
ltibia 33.0302
lfoot -18.5676 -4.16248
ltoes 37.4021
401
root 46.9146 16.1632 -1.74784 1162.63 82.5322 1162.99
lowerback -3.53629 -1.26924 -8.27814
upperback 0.287522 -1.23892 -1.96757
thorax 2.42327 -0.688704 2.52933
lowerneck -10.2947 1.36922 3.33269
upperneck 7.8276 1.4688 -1.12295
head 4.50774 0.771928 -0.87818
rclavicle 9.55176e-015 9.88954e-015
rhumerus -40.2927 -39.2482 -63.9047
rradius 3.16627
rwrist 33.9282
rhand -23.467 28.6554
rfingers 7.12502
rthumb 2.99209 -1.30335
lclavicle 9.55176e-015 9.88954e-015
lhumerus -14.5305 18.5754 81.0419
lradius 31.9939
lwrist 4.92874
lhand -10.1722 40.589
lfingers 7.12502
lthumb 15.8178 69.9628
rfemur -25.4944 -2.17602 11.679
rtibia 44.9386
rfoot -18.5457 -11.6988
rtoes -3.24907
lfemur -8.10944 3.88206 -31.5964
ltibia 32.2716
lfoot -18.5856 -4.38553
ltoes 39.7569
402
root 47.0441 16.1784 -1.75323 1166.14 82.9522 1166.48
lowerback -3.2827 -1.39562 -7.94662
upperback 0.177464 -1.46357 -1.80672
thorax 2.18435 -0.789063 2.50548
lowerneck -10.7143 1.37368 3.81775
upperneck 8.7894 1.49225 -2.05773
head 4.42599 0.742361 -1.14992
rclavicle -1.58329e-015 -6.60959e-015
rhumerus -41.6525 -38.675 -62.963
rradius 3.41829
rwrist 33.859
rhand -23.1462 28.6306
rfingers 7.12502
rthumb 3.3019 -1.3236
lclavicle -1.58329e-015 -6.60959e-015
lhumerus -13.5545 17.6295 81.4334
lradius 33.2949
lwrist 5.93254
lhand -9.39901 40.6929
lfingers 7.12502
lthumb 16.5623 70.0061
rfemur -25.7808 -2.22289 12.0497
rtibia 42.4521
rfoot -18.3332 -12.4092
rtoes -2.56468
lfemur -7.21173 3.80158 -31.2006
ltibia 31.5023
lfoot -18.5168 -4.70737
ltoes 37.7889
403
root 47.1754 16.1992 -1.74453 1167.15 83.7142 1167.76
lowerback -2.89643 -1.37147 -7.39097
upperback 0.259726 -1.5 -1.56423
thorax 2.04662 -0.804214 2.45305
lowerneck -10.5683 1.29081 3.16429
upperneck 8.36524 1.38746 -1.18431
head 4.25782 0.718562 -0.783152
rclavicle -2.06901e-014 -1.60394e-014
rhumerus -43.1488 -38.2129 -62.0737
rradius 4.10192
rwrist 33.8362
rhand -22.7602 28.6518
rfingers 7.12502
rthumb 3.67464 -1.29629
lclavicle -2.06901e-014 -1.60394e-014
lhumerus -12.5032 16.6415 81.7856
lradius 34.6254
lwrist 6.91128
lhand -9.29009 41.614
lfingers 7.12502
lthumb 16.6672 70.9185
rfemur -25.7198 -1.07565 12.952
rtibia 39.9202
rfoot -17.675 -14.0046
rtoes -1.48435
lfemur -6.11976 3.78537 -30.1936
ltibia 30.8086
lfoot -18.5758 -4.82393
ltoes 40.1257
404
root 47.301 16.2047 -1.74951 1170.99 83.6634 1171.51
lowerback -2.76203 -1.48601 -7.4434
upperback 0.173945 -1.66741 -1.56858
thorax 1.8999 -0.881152 2.47364
lowerneck -10.5533 1.26239 3.05026
upperneck 8.21063 1.34541 -0.986742
head 4.20488 0.704593 -0.707082
rclavicle -3.1545e-014 -1.55487e-014
rhumerus -44.4699 -37.7053 -61.2821
rradius 4.56469
rwrist 33.7293
rhand -22.4523 28.7871
rfingers 7.12502
rthumb 3.97202 -1.15562
lclavicle -3.1545e-014 -1.55487e-014
lhumerus -11.7129 15.8254 82.0452
lradius 35.9745
lwrist 7.7215
lhand -9.34734 42.0823
lfingers 7.12502
lthumb 16.6121 71.3913
rfemur -26.0106 -0.964716 12.797
rtibia 37.3973
rfoot -17.368 -14.3747
rtoes -0.187696
lfemur -5.40471 3.70264 -30.2312
ltibia 30.1862
lfoot -18.7024 -5.06725
ltoes 37.6148
405
root 47.4316 16.2123 -1.74998 1174.88 83.5471 1175.3
lowerback -3.06623 -1.60886 -7.57272
upperback 0.377009 -1.78408 -1.58963
thorax 2.29704 -0.957498 2.50566
lowerneck -10.6602 1.37975 3.33693
upperneck 7.92204 1.48288 -1.26525
head 4.14089 0.762614 -0.829711
rclavicle 1.93532e-014 6.45429e-015
rhumerus -45.0237 -37.5707 -60.9121
rradius 4.6565
rwrist 33.5988
rhand -22.4879 29.3192
rfingers 7.12502
rthumb 3.93767 -0.624206
lclavicle 1.93532e-014 6.45429e-015
lhumerus -10.3717 15.1288 82.4278
lradius 37.0303
lwrist 8.26877
lhand -9.79524 41.1591
lfingers 7.12502
lthumb 16.1808 70.5038
rfemur -26.2563 -0.736436 12.5826
rtibia 34.9637
rfoot -17.1914 -14.3486
rtoes 1.58646
lfemur -4.66448 3.68486 -30.2633
ltibia 29.5088
lfoot -18.6903 -5.47623
ltoes 40.3513
406
root 47.5597 16.2238 -1.74977 1179.35 83.4635 1179.81
lowerback -2.92052 -1.73884 -7.68688
upperback 0.383812 -1.9677 -1.54965
thorax 2.24607 -1.0492 2.60377
lowerneck -10.5961 1.42003 3.36322
upperneck 7.42628 1.52978 -1.23697
head 4.42696 0.792139 -0.916882
rclavicle -2.56757e-014 4.49401e-015
rhumerus -46.0058 -37.1724 -60.2067
rradius 4.87992
rwrist 33.5085
rhand -22.4112 29.6522
rfingers 7.12502
rthumb 4.01169 -0.289785
lclavicle -2.56757e-014 4.49401e-015
lhumerus -9.42982 14.361 82.7066
lradius 38.0957
lwrist 8.79122
lhand -10.6136 40.004
lfingers 7.12502
lthumb 15.3927 69.411
rfemur -26.4189 -0.539068 12.4375
rtibia 32.8094
rfoot -16.8949 -14.1762
rtoes 3.37808
lfemur -3.70687 3.52907 -30.2003
ltibia 28.6732
lfoot -18.547 -5.83496
ltoes 40.8667
407
root 47.6846 16.2352 -1.75961 1184.26 83.5551 1184.84
lowerback -2.65175 -1.85508 -7.39133
upperback 0.380249 -2.16296 -1.49231
thorax 2.10156 -1.13995 2.49663
lowerneck -10.6228 1.32685 3.16929
upperneck 7.44164 1.41907 -1.09871
head 4.43027 0.738997 -0.842585
rclavicle 4.3408e-014 3.21099e-014
rhumerus -47.0655 -36.7413 -59.4776
rradius 5.1904
rwrist 33.4794
rhand -22.0829 29.7455
rfingers 7.12502
rthumb 4.3287 -0.190251
lclavicle 4.3408e-014 3.21099e-014
lhumerus -8.64033 13.5554 82.9094
lradius 39.2657
lwrist 9.28195
lhand -10.9187 39.9345
lfingers 7.12502
lthumb 15.0988 69.3638
rfemur -26.5187 -0.380915 12.4911
rtibia 30.8658
rfoot -16.5433 -13.8691
rtoes 4.51016
lfemur -2.6096 3.31524 -29.9172
ltibia 27.7552
lfoot -18.4363 -6.10433
ltoes 40.5263
408
root 47.8104 16.238 -1.76272 1187.7 82.8781 1187.96
lowerback -3.46469 -2.02435 -7.85348
upperback 0.740522 -2.25909 -1.67294
thorax 2.95628 -1.22537 2.52441
lowerneck -10.6487 1.40791 3.10351
upperneck 6.81606 1.52307 -0.97919
head 4.20898 0.789596 -0.78145
rclavicle 5.63944e-015 -1.75412e-014
rhumerus -47.2704 -36.8922 -59.3326
rradius 5.50921
rwrist 33.3616
rhand -21.7662 29.814
rfingers 7.12502
rthumb 4.63451 -0.115277
lclavicle 5.63944e-015 -1.75412e-014
lhumerus -7.03271 12.801 83.2684
lradius 40.2219
lwrist 9.64276
lhand -10.9281 40.1929
lfingers 7.12502
lthumb 15.0898 69.6229
rfemur -27.0585 -0.211518 11.6329
rtibia 29.1737
rfoot -16.1571 -13.484
rtoes 4.00895
lfemur -1.95077 3.11594 -30.4778
ltibia 26.7251
lfoot -18.2056 -6.3912
ltoes 40.516
409
root 47.932 16.2386 -1.77324 1190.26 82.13 1190.13
lowerback -3.58484 -2.24008 -8.35525
upperback 0.528285 -2.51174 -1.82939
thorax 2.84566 -1.34493 2.62306
lowerneck -10.6099 1.38221 3.04237
upperneck 6.81668 1.48921 -0.873492
head 4.19826 0.776704 -0.737121
rclavicle 1.29862e-014 2.37796e-014
rhumerus -48.0959 -36.4152 -58.8019
rradius 5.6668
rwrist 33.3279
rhand -21.6828 30.0809
rfingers 7.12502
rthumb 4.71505 0.153381
lclavicle 1.29862e-014 2.37796e-014
lhumerus -6.52634 12.2576 83.3932
lradius 41.2313
lwrist 9.90732
lhand -10.9143 39.5249
lfingers 7.12502
lthumb 15.1031 68.9538
rfemur -27.6257 -0.00817876 10.5998
rtibia 27.6237
rfoot -15.5424 -12.8879
rtoes 2.20866
lfemur -1.41096 2.85071 -31.1503
ltibia 25.8079
lfoot -17.8191 -6.69359
ltoes 40.8738
410
root 48.0591 16.2442 -1.77358 1193.85 81.5328 1193.55
lowerback -3.63094 -2.49521 -8.78214
upperback 0.44404 -2.82559 -1.88292
thorax 2.83759 -1.50203 2.78064
lowerneck -10.5966 1.45501 3.24065
upperneck 6.93621 1.58661 -1.17736
head 4.24826 0.815675 -0.869223
rclavicle -2.7886e-014 -4.94477e-015
rhumerus -48.7193 -35.9914 -58.3257
rradius 5.51376
rwrist 33.6337
rhand -22.2144 30.7959
rfingers 7.12502
rthumb 4.20173 0.857611
lclavicle -2.7886e-014 -4.94477e-015
lhumerus -6.22906 11.8697 83.5818
lradius 42.3992
lwrist 9.96436
lhand -10.9371 38.5172
lfingers 7.12502
lthumb 15.0811 67.9479
rfemur -28.0469 0.270627 9.69101
rtibia 26.2802
rfoot -14.7582 -12.2464
rtoes 1.67022
lfemur -0.632274 2.72556 -31.4815
ltibia 24.9175
lfoot -17.3124 -7.39248
ltoes 40.9369
